%TF.GenerationSoftware,KiCad,Pcbnew,(5.1.6)-1*%
%TF.CreationDate,2020-09-22T19:12:10+02:00*%
%TF.ProjectId,Uno,556e6f2e-6b69-4636-9164-5f7063625858,rev?*%
%TF.SameCoordinates,Original*%
%TF.FileFunction,Legend,Top*%
%TF.FilePolarity,Positive*%
%FSLAX46Y46*%
G04 Gerber Fmt 4.6, Leading zero omitted, Abs format (unit mm)*
G04 Created by KiCad (PCBNEW (5.1.6)-1) date 2020-09-22 19:12:10*
%MOMM*%
%LPD*%
G01*
G04 APERTURE LIST*
%ADD10C,0.150000*%
%ADD11C,0.120000*%
G04 APERTURE END LIST*
D10*
X48085714Y-94683333D02*
X48171428Y-94716666D01*
X48314285Y-94716666D01*
X48371428Y-94683333D01*
X48400000Y-94650000D01*
X48428571Y-94583333D01*
X48428571Y-94516666D01*
X48400000Y-94450000D01*
X48371428Y-94416666D01*
X48314285Y-94383333D01*
X48200000Y-94350000D01*
X48142857Y-94316666D01*
X48114285Y-94283333D01*
X48085714Y-94216666D01*
X48085714Y-94150000D01*
X48114285Y-94083333D01*
X48142857Y-94050000D01*
X48200000Y-94016666D01*
X48342857Y-94016666D01*
X48428571Y-94050000D01*
X48771428Y-94716666D02*
X48714285Y-94683333D01*
X48685714Y-94616666D01*
X48685714Y-94016666D01*
X49085714Y-94716666D02*
X49028571Y-94683333D01*
X49000000Y-94650000D01*
X48971428Y-94583333D01*
X48971428Y-94383333D01*
X49000000Y-94316666D01*
X49028571Y-94283333D01*
X49085714Y-94250000D01*
X49171428Y-94250000D01*
X49228571Y-94283333D01*
X49257142Y-94316666D01*
X49285714Y-94383333D01*
X49285714Y-94583333D01*
X49257142Y-94650000D01*
X49228571Y-94683333D01*
X49171428Y-94716666D01*
X49085714Y-94716666D01*
X49485714Y-94250000D02*
X49600000Y-94716666D01*
X49714285Y-94383333D01*
X49828571Y-94716666D01*
X49942857Y-94250000D01*
X48400000Y-83850000D02*
X48200000Y-83850000D01*
X48200000Y-84216666D02*
X48200000Y-83516666D01*
X48485714Y-83516666D01*
X48971428Y-84216666D02*
X48971428Y-83850000D01*
X48942857Y-83783333D01*
X48885714Y-83750000D01*
X48771428Y-83750000D01*
X48714285Y-83783333D01*
X48971428Y-84183333D02*
X48914285Y-84216666D01*
X48771428Y-84216666D01*
X48714285Y-84183333D01*
X48685714Y-84116666D01*
X48685714Y-84050000D01*
X48714285Y-83983333D01*
X48771428Y-83950000D01*
X48914285Y-83950000D01*
X48971428Y-83916666D01*
X49228571Y-84183333D02*
X49285714Y-84216666D01*
X49400000Y-84216666D01*
X49457142Y-84183333D01*
X49485714Y-84116666D01*
X49485714Y-84083333D01*
X49457142Y-84016666D01*
X49400000Y-83983333D01*
X49314285Y-83983333D01*
X49257142Y-83950000D01*
X49228571Y-83883333D01*
X49228571Y-83850000D01*
X49257142Y-83783333D01*
X49314285Y-83750000D01*
X49400000Y-83750000D01*
X49457142Y-83783333D01*
X49657142Y-83750000D02*
X49885714Y-83750000D01*
X49742857Y-83516666D02*
X49742857Y-84116666D01*
X49771428Y-84183333D01*
X49828571Y-84216666D01*
X49885714Y-84216666D01*
%TO.C,SW1*%
X50150000Y-85750000D02*
X50200000Y-92500000D01*
X47300000Y-85750000D02*
X50150000Y-85750000D01*
X47300000Y-92500000D02*
X47300000Y-85750000D01*
X50200000Y-92500000D02*
X47300000Y-92500000D01*
%TO.C,U1*%
X31310000Y-99540000D02*
X50310000Y-99540000D01*
X34850000Y-82040000D02*
X31310000Y-82040000D01*
X46880000Y-73040000D02*
X46880000Y-82040000D01*
X46880000Y-73040000D02*
X34850000Y-73040000D01*
X31310000Y-82040000D02*
X31310000Y-99540000D01*
X46880000Y-82040000D02*
X50310000Y-82040000D01*
X50310000Y-82040000D02*
X50310000Y-99540000D01*
X34850000Y-73040000D02*
X34850000Y-82040000D01*
D11*
%TO.C,Maludo Uno*%
X33775000Y-83045000D02*
X47745000Y-83045000D01*
X47745000Y-83045000D02*
X47745000Y-97015000D01*
X47745000Y-97015000D02*
X33775000Y-97015000D01*
X33775000Y-97015000D02*
X33775000Y-83045000D01*
%TO.C,SW1*%
D10*
X51866666Y-93804761D02*
X52009523Y-93852380D01*
X52247619Y-93852380D01*
X52342857Y-93804761D01*
X52390476Y-93757142D01*
X52438095Y-93661904D01*
X52438095Y-93566666D01*
X52390476Y-93471428D01*
X52342857Y-93423809D01*
X52247619Y-93376190D01*
X52057142Y-93328571D01*
X51961904Y-93280952D01*
X51914285Y-93233333D01*
X51866666Y-93138095D01*
X51866666Y-93042857D01*
X51914285Y-92947619D01*
X51961904Y-92900000D01*
X52057142Y-92852380D01*
X52295238Y-92852380D01*
X52438095Y-92900000D01*
X52771428Y-92852380D02*
X53009523Y-93852380D01*
X53200000Y-93138095D01*
X53390476Y-93852380D01*
X53628571Y-92852380D01*
X54533333Y-93852380D02*
X53961904Y-93852380D01*
X54247619Y-93852380D02*
X54247619Y-92852380D01*
X54152380Y-92995238D01*
X54057142Y-93090476D01*
X53961904Y-93138095D01*
%TO.C,U1*%
X52338095Y-96452380D02*
X52338095Y-97261904D01*
X52385714Y-97357142D01*
X52433333Y-97404761D01*
X52528571Y-97452380D01*
X52719047Y-97452380D01*
X52814285Y-97404761D01*
X52861904Y-97357142D01*
X52909523Y-97261904D01*
X52909523Y-96452380D01*
X53909523Y-97452380D02*
X53338095Y-97452380D01*
X53623809Y-97452380D02*
X53623809Y-96452380D01*
X53528571Y-96595238D01*
X53433333Y-96690476D01*
X53338095Y-96738095D01*
%TO.C,Maludo Uno*%
X32278095Y-91928571D02*
X33078095Y-91928571D01*
X32506666Y-92195238D01*
X33078095Y-92461904D01*
X32278095Y-92461904D01*
X32278095Y-93185714D02*
X32697142Y-93185714D01*
X32773333Y-93147619D01*
X32811428Y-93071428D01*
X32811428Y-92919047D01*
X32773333Y-92842857D01*
X32316190Y-93185714D02*
X32278095Y-93109523D01*
X32278095Y-92919047D01*
X32316190Y-92842857D01*
X32392380Y-92804761D01*
X32468571Y-92804761D01*
X32544761Y-92842857D01*
X32582857Y-92919047D01*
X32582857Y-93109523D01*
X32620952Y-93185714D01*
X32278095Y-93680952D02*
X32316190Y-93604761D01*
X32392380Y-93566666D01*
X33078095Y-93566666D01*
X32811428Y-94328571D02*
X32278095Y-94328571D01*
X32811428Y-93985714D02*
X32392380Y-93985714D01*
X32316190Y-94023809D01*
X32278095Y-94100000D01*
X32278095Y-94214285D01*
X32316190Y-94290476D01*
X32354285Y-94328571D01*
X32278095Y-95052380D02*
X33078095Y-95052380D01*
X32316190Y-95052380D02*
X32278095Y-94976190D01*
X32278095Y-94823809D01*
X32316190Y-94747619D01*
X32354285Y-94709523D01*
X32430476Y-94671428D01*
X32659047Y-94671428D01*
X32735238Y-94709523D01*
X32773333Y-94747619D01*
X32811428Y-94823809D01*
X32811428Y-94976190D01*
X32773333Y-95052380D01*
X32278095Y-95547619D02*
X32316190Y-95471428D01*
X32354285Y-95433333D01*
X32430476Y-95395238D01*
X32659047Y-95395238D01*
X32735238Y-95433333D01*
X32773333Y-95471428D01*
X32811428Y-95547619D01*
X32811428Y-95661904D01*
X32773333Y-95738095D01*
X32735238Y-95776190D01*
X32659047Y-95814285D01*
X32430476Y-95814285D01*
X32354285Y-95776190D01*
X32316190Y-95738095D01*
X32278095Y-95661904D01*
X32278095Y-95547619D01*
X33078095Y-96766666D02*
X32430476Y-96766666D01*
X32354285Y-96804761D01*
X32316190Y-96842857D01*
X32278095Y-96919047D01*
X32278095Y-97071428D01*
X32316190Y-97147619D01*
X32354285Y-97185714D01*
X32430476Y-97223809D01*
X33078095Y-97223809D01*
X32811428Y-97604761D02*
X32278095Y-97604761D01*
X32735238Y-97604761D02*
X32773333Y-97642857D01*
X32811428Y-97719047D01*
X32811428Y-97833333D01*
X32773333Y-97909523D01*
X32697142Y-97947619D01*
X32278095Y-97947619D01*
X32278095Y-98442857D02*
X32316190Y-98366666D01*
X32354285Y-98328571D01*
X32430476Y-98290476D01*
X32659047Y-98290476D01*
X32735238Y-98328571D01*
X32773333Y-98366666D01*
X32811428Y-98442857D01*
X32811428Y-98557142D01*
X32773333Y-98633333D01*
X32735238Y-98671428D01*
X32659047Y-98709523D01*
X32430476Y-98709523D01*
X32354285Y-98671428D01*
X32316190Y-98633333D01*
X32278095Y-98557142D01*
X32278095Y-98442857D01*
%TD*%
M02*
